<?xml version="1.0" encoding="UTF-8"?>
<svg width="64" height="64" viewBox="0 0 64 64" fill="none" xmlns="http://www.w3.org/2000/svg">
  <circle cx="32" cy="32" r="32" fill="#27ae60"/>
  <path d="M20 30C24 26 40 26 44 30" stroke="white" stroke-width="3" stroke-linecap="round"/>
  <path d="M24 34C27.5 31 36.5 31 40 34" stroke="white" stroke-width="3" stroke-linecap="round"/>
  <path d="M28 38C30.5 36 33.5 36 36 38" stroke="white" stroke-width="3" stroke-linecap="round"/>
  <path d="M32 44C30 42 26 39 26 35C26 32.5 28 30 30.5 30C32 30 33.5 31 34 32.5C34.5 31 36 30 37.5 30C40 30 42 32.5 42 35C42 39 38 42 36 44C34 46 33 46 32 44Z" fill="white"/>
</svg>
